<svg width="22" height="21" viewBox="0 0 22 21" fill="none" xmlns="http://www.w3.org/2000/svg">
<path d="M7.91002 21C7.60456 20.9992 7.31066 20.8801 7.08718 20.6664L0.212855 14.1926C0.145758 14.1293 0.0921959 14.0524 0.0555569 13.9667C0.0189179 13.8811 0 13.7886 0 13.6951C0 13.6016 0.0189179 13.5091 0.0555569 13.4234C0.0921959 13.3378 0.145758 13.2609 0.212855 13.1976L7.08718 6.72315C7.26237 6.55824 7.48055 6.44922 7.7151 6.40937C7.94966 6.36953 8.19044 6.40059 8.40808 6.49877C8.62572 6.59694 8.8108 6.75799 8.94075 6.96225C9.0707 7.16652 9.13989 7.40518 9.13989 7.64911V9.82378H13.5183C13.6928 9.82378 13.8601 9.8949 13.9835 10.0215C14.1069 10.1481 14.1762 10.3198 14.1762 10.4988V13.1352L20.3694 7.30255L14.1762 1.46985V4.10579C14.1762 4.28482 14.1069 4.45652 13.9835 4.58311C13.8601 4.7097 13.6928 4.78082 13.5183 4.78082H3.72864C3.55415 4.78082 3.38681 4.7097 3.26342 4.58311C3.14004 4.45652 3.07072 4.28482 3.07072 4.10579C3.07072 3.92676 3.14004 3.75507 3.26342 3.62847C3.38681 3.50188 3.55415 3.43076 3.72864 3.43076H12.8602V1.25627C12.8602 1.01234 12.9294 0.773675 13.0594 0.569423C13.1894 0.36517 13.3745 0.204165 13.5922 0.106064C13.8099 0.00796205 14.0507 -0.0229916 14.2852 0.0169819C14.5198 0.0569555 14.7379 0.166127 14.9129 0.331167L21.7871 6.80505C21.8542 6.86835 21.9078 6.94524 21.9444 7.03087C21.9811 7.1165 22 7.20901 22 7.30252C22 7.39604 21.9811 7.48854 21.9444 7.57417C21.9078 7.6598 21.8542 7.7367 21.7871 7.8L14.9128 14.2745C14.7376 14.4394 14.5195 14.5484 14.2849 14.5882C14.0503 14.6281 13.8096 14.597 13.5919 14.4988C13.3743 14.4007 13.1892 14.2396 13.0592 14.0354C12.9293 13.8311 12.8601 13.5924 12.8601 13.3485V11.1738H8.48184C8.30735 11.1738 8.14 11.1027 8.01662 10.9761C7.89324 10.8495 7.82392 10.6778 7.82392 10.4988V7.86242L1.63071 13.6951L7.82392 19.5278V16.8918C7.82392 16.7128 7.89324 16.5411 8.01662 16.4145C8.14 16.2879 8.30735 16.2168 8.48184 16.2168H17.1076C17.2821 16.2168 17.4494 16.2879 17.5728 16.4145C17.6962 16.5411 17.7655 16.7128 17.7655 16.8918C17.7655 17.0709 17.6962 17.2425 17.5728 17.3691C17.4494 17.4957 17.2821 17.5669 17.1076 17.5669H9.13976V19.7413C9.14168 19.9857 9.07324 20.2252 8.94301 20.4298C8.81278 20.6344 8.62656 20.795 8.40771 20.8915C8.25096 20.9627 8.08146 20.9996 7.91002 21Z" fill="#F07440"/>
</svg>
