<svg width="10" height="10" viewBox="0 0 10 10" fill="none" xmlns="http://www.w3.org/2000/svg">
<path d="M5.00017 0C2.23836 0 0 2.23768 0 5.00017C0 7.7613 2.23836 10 5.00017 10C7.76096 10 9.99966 7.7613 9.99966 5.00017C9.99966 2.23768 7.7613 0 5.00017 0ZM5.00017 9.18436C2.68766 9.18436 0.814965 7.31133 0.814965 4.99983C0.814965 2.688 2.68766 0.814288 5.00017 0.814288C7.31065 0.814288 9.1847 2.68834 9.1847 4.99983C9.18504 7.31133 7.31065 9.18436 5.00017 9.18436Z" fill="#828282"/>
<path d="M5.69836 3.77271H4.29291V3.77508H3.76981V4.59207H4.29291V7.50997H3.73764V8.29074H4.29291V8.29615H5.69836V8.29074H6.15815V7.50997H5.69836V3.77271Z" fill="#828282"/>
<path d="M4.98581 3.21801C5.45813 3.21801 5.74423 2.9038 5.74423 2.51477C5.73509 2.11796 5.45779 1.81323 5.00477 1.81323C4.55242 1.81323 4.25616 2.11762 4.25616 2.51477C4.25583 2.9038 4.5426 3.21801 4.98581 3.21801Z" fill="#828282"/>
</svg>
