<svg width="100" height="100" viewBox="0 0 100 100" fill="none" xmlns="http://www.w3.org/2000/svg">
<rect width="100" height="100" rx="6" fill="#F2F6FC"/>
<g clip-path="url(#clip0_1930_2713)">
<rect x="37.2642" y="35.2264" width="25.4717" height="9.16981" rx="3" fill="#3693E7"/>
<mask id="mask0_1930_2713" style="mask-type:luminance" maskUnits="userSpaceOnUse" x="23" y="23" width="54" height="54">
<path d="M23 23H77V77H23V23Z" fill="white"/>
</mask>
<g mask="url(#mask0_1930_2713)">
<path d="M37.291 73.0449V74.0996C37.291 75.2646 36.3466 76.209 35.1816 76.209H31.3848C30.2198 76.209 29.2754 75.2646 29.2754 74.0996V71.9902" fill="#3693E7"/>
<path d="M37.291 73.0449V74.0996C37.291 75.2646 36.3466 76.209 35.1816 76.209H31.3848C30.2198 76.209 29.2754 75.2646 29.2754 74.0996V71.9902" stroke="black" stroke-miterlimit="10" stroke-linecap="round" stroke-linejoin="round"/>
<path d="M70.7246 71.9902V74.0996C70.7246 75.2646 69.7802 76.209 68.6152 76.209H64.8184C63.6534 76.209 62.709 75.2646 62.709 74.0996V73.0449" fill="#3693E7"/>
<path d="M70.7246 71.9902V74.0996C70.7246 75.2646 69.7802 76.209 68.6152 76.209H64.8184C63.6534 76.209 62.709 75.2646 62.709 74.0996V73.0449" stroke="black" stroke-miterlimit="10" stroke-linecap="round" stroke-linejoin="round"/>
<path d="M73.3974 71.2333L62.709 73.0449H37.291L26.6025 71.2333C25.5881 71.0614 24.8457 70.1825 24.8457 69.1536V67.1387C24.8457 66.5562 25.3179 66.084 25.9004 66.084H74.0996C74.6821 66.084 75.1543 66.5562 75.1543 67.1387V69.1536C75.1543 70.1825 74.4119 71.0614 73.3974 71.2333Z" stroke="black" stroke-miterlimit="10" stroke-linecap="round" stroke-linejoin="round"/>
<path d="M37.8184 66.084V52.373C37.8184 49.4606 40.1794 47.0996 43.0918 47.0996H56.9082C59.8206 47.0996 62.1816 49.4606 62.1816 52.373V66.084" stroke="black" stroke-miterlimit="10" stroke-linecap="round" stroke-linejoin="round"/>
<path d="M44.4102 50.2637H43.6191C42.1629 50.2637 40.9824 51.4442 40.9824 52.9004V60.2832C40.9824 61.7394 42.1629 62.9199 43.6191 62.9199H56.3809C57.8371 62.9199 59.0176 61.7394 59.0176 60.2832V52.9004C59.0176 51.4442 57.8371 50.2637 56.3809 50.2637H48.1016" stroke="black" stroke-miterlimit="10" stroke-linecap="round" stroke-linejoin="round"/>
<path d="M55.959 53.4277H44.1465" stroke="black" stroke-miterlimit="10" stroke-linecap="round" stroke-linejoin="round"/>
<path d="M55.959 56.5918H44.1465" stroke="black" stroke-miterlimit="10" stroke-linecap="round" stroke-linejoin="round"/>
<path d="M55.959 59.7559H44.1465" stroke="black" stroke-miterlimit="10" stroke-linecap="round" stroke-linejoin="round"/>
<path d="M37.8184 52.7949L33.5568 52.7527C30.0376 52.7179 27.166 55.5612 27.166 59.0805V66.084" stroke="black" stroke-miterlimit="10" stroke-linecap="round" stroke-linejoin="round"/>
<path d="M62.1816 52.7826H66.5059C70.0008 52.7826 72.834 55.6158 72.834 59.1107V66.084" stroke="black" stroke-miterlimit="10" stroke-linecap="round" stroke-linejoin="round"/>
<path d="M37.8184 62.3926H31.3848C30.8023 62.3926 30.3301 61.9203 30.3301 61.3379V58.7012C30.3301 58.1188 30.8023 57.6465 31.3848 57.6465H37.8184" stroke="black" stroke-miterlimit="10" stroke-linecap="round" stroke-linejoin="round"/>
<path d="M62.1816 57.6465H68.6152C69.1977 57.6465 69.6699 58.1188 69.6699 58.7012V61.3379C69.6699 61.9203 69.1977 62.3926 68.6152 62.3926H62.1816" stroke="black" stroke-miterlimit="10" stroke-linecap="round" stroke-linejoin="round"/>
<path d="M34.9707 52.712V32.7558H65.0293V52.712" stroke="black" stroke-miterlimit="10" stroke-linecap="round" stroke-linejoin="round"/>
<path d="M62.1816 42.6172V42.8809C62.1816 43.4634 61.7095 43.9355 61.127 43.9355H38.873C38.2905 43.9355 37.8184 43.4634 37.8184 42.8809V36.9746C37.8184 36.3921 38.2905 35.9199 38.873 35.9199H61.127C61.7095 35.9199 62.1816 36.3921 62.1816 36.9746V38.9258" stroke="black" stroke-miterlimit="10" stroke-linecap="round" stroke-linejoin="round"/>
<path d="M65.0293 32.7559L62.8586 26.6057C62.2633 24.919 60.6691 23.791 58.8804 23.791H41.1196C39.3309 23.791 37.7367 24.919 37.1414 26.6057L34.9707 32.7559" stroke="black" stroke-miterlimit="10" stroke-linecap="round" stroke-linejoin="round"/>
<path d="M45.4648 28.0098H44.4629C43.2979 28.0098 42.3535 27.0654 42.3535 25.9004V23.791" stroke="black" stroke-miterlimit="10" stroke-linecap="round" stroke-linejoin="round"/>
<path d="M57.6465 23.791V25.9004C57.6465 27.0654 56.7021 28.0098 55.5371 28.0098H49.1562" stroke="black" stroke-miterlimit="10" stroke-linecap="round" stroke-linejoin="round"/>
<path d="M41.5098 69.3535H38.873C38.5818 69.3535 38.3457 69.5896 38.3457 69.8809V73.0449H42.0371V69.8809C42.0371 69.5896 41.801 69.3535 41.5098 69.3535Z" stroke="black" stroke-miterlimit="10" stroke-linecap="round" stroke-linejoin="round"/>
<path d="M61.127 69.3535H58.4902C58.199 69.3535 57.9629 69.5896 57.9629 69.8809V73.0449H61.6543V69.8809C61.6543 69.5896 61.4182 69.3535 61.127 69.3535Z" stroke="black" stroke-miterlimit="10" stroke-linecap="round" stroke-linejoin="round"/>
<path d="M28.748 52.1094V54.7988" stroke="black" stroke-miterlimit="10" stroke-linecap="round" stroke-linejoin="round"/>
<path d="M34.9707 46.0449H30.8574C29.6924 46.0449 28.748 46.9893 28.748 48.1543V48.418" stroke="black" stroke-miterlimit="10" stroke-linecap="round" stroke-linejoin="round"/>
<path d="M65.1348 46.0449H69.248C70.4131 46.0449 71.3574 46.9893 71.3574 48.1543V54.7988" stroke="black" stroke-miterlimit="10" stroke-linecap="round" stroke-linejoin="round"/>
<path d="M30.2246 46.0449V38.0293C30.2246 37.4468 30.6968 36.9746 31.2793 36.9746H34.9707" stroke="black" stroke-miterlimit="10" stroke-linecap="round" stroke-linejoin="round"/>
<path d="M69.7754 46.0449V38.0293C69.7754 37.4468 69.3032 36.9746 68.7207 36.9746H65.0293" stroke="black" stroke-miterlimit="10" stroke-linecap="round" stroke-linejoin="round"/>
<path d="M68.7207 36.9746H65.0293V28.2207C65.0293 25.8231 66.9559 23.791 69.3535 23.791H71.041V27.5352H69.3535C68.9912 27.5352 68.6966 27.8298 68.6966 28.1921L68.7207 36.9746Z" stroke="black" stroke-miterlimit="10" stroke-linecap="round" stroke-linejoin="round"/>
<path d="M31.2793 36.9746H34.9707V28.2207C34.9707 25.8231 33.0441 23.791 30.6465 23.791H28.959V27.5352H30.6465C31.0088 27.5352 31.3034 27.8298 31.3034 28.1921L31.2793 36.9746Z" stroke="black" stroke-miterlimit="10" stroke-linecap="round" stroke-linejoin="round"/>
</g>
</g>
<defs>
<clipPath id="clip0_1930_2713">
<rect width="54" height="54" fill="white" transform="translate(23 23)"/>
</clipPath>
</defs>
</svg>
